<?xml version="1.0" standalone="no"?><!DOCTYPE svg PUBLIC "-//W3C//DTD SVG 1.1//EN" "http://www.w3.org/Graphics/SVG/1.1/DTD/svg11.dtd"><svg t="1610274412582" class="icon" viewBox="0 0 1024 1024" version="1.1" xmlns="http://www.w3.org/2000/svg" p-id="3366" xmlns:xlink="http://www.w3.org/1999/xlink" width="200" height="200"><defs><style type="text/css"></style></defs><path d="M549.092 37.902a70.969 70.969 0 0 0-70.97 0L120.748 244.224a70.969 70.969 0 0 0-35.485 61.454v412.644a70.969 70.969 0 0 0 35.485 61.454l357.361 206.322a70.969 70.969 0 0 0 70.97 0l357.361-206.322a70.969 70.969 0 0 0 35.485-61.454V305.678a70.969 70.969 0 0 0-35.485-61.454L549.092 37.902z m14.193-24.59l357.362 206.322a99.356 99.356 0 0 1 49.678 86.044v412.644a99.356 99.356 0 0 1-49.678 86.044l-357.362 206.322a99.356 99.356 0 0 1-99.356 0L106.567 804.366a99.356 99.356 0 0 1-49.678-86.044V305.678a99.356 99.356 0 0 1 49.678-86.044L463.93 13.312a99.356 99.356 0 0 1 99.356 0z" p-id="3367" fill="#ffffff"></path><path d="M406.94 583.51h-5.944c-39.552 0-71.211-32.64-71.211-72.207 0-39.552 31.659-72.192 71.21-72.192 39.567 0 71.211 32.64 71.211 72.192 0 24.733-11.861 46.493-30.649 59.35 11.862 29.667 31.645 54.4 56.377 73.187l0.996-0.996 1.962 1.992c38.571 26.695 88.036 36.593 137.472 23.736C726.4 644.822 778.81 555.82 756.068 468.78c-22.756-87.04-113.736-137.472-201.771-114.731-6.912 1.991-13.838 3.968-20.765 6.926 42.525 36.594 69.234 89.998 69.234 150.33h-35.612c0-90-74.17-162.191-165.163-162.191S236.828 422.3 236.828 511.289c0 89.031 74.17 162.204 165.163 162.204 21.76 0 42.525-3.953 62.308-11.861-25.714-19.783-45.497-46.492-57.359-78.137z m91.976-245.277a167.78 167.78 0 0 1 45.496-17.806c107.805-28.687 217.6 33.621 246.272 139.449 28.687 105.827-35.612 215.608-143.416 244.295a203.605 203.605 0 0 1-149.334-17.807 198.784 198.784 0 0 1-96.938 24.747c-110.763 0-201.757-89.017-201.757-198.798 0-109.796 89.998-198.798 201.757-198.798 35.612 0 68.252 8.903 97.92 24.732z m-97.92 209.678c18.801 0 34.616-15.83 34.616-35.612 0-19.77-15.815-35.599-34.616-35.599-18.774 0-34.617 15.816-34.617 35.599 0 19.769 14.848 35.612 34.617 35.612z" p-id="3368" fill="#ffffff"></path></svg>